<svg xmlns:dc="http://purl.org/dc/elements/1.1/" xmlns:cc="http://creativecommons.org/ns#" xmlns:rdf="http://www.w3.org/1999/02/22-rdf-syntax-ns#" xmlns:svg="http://www.w3.org/2000/svg" xmlns="http://www.w3.org/2000/svg" xmlns:sodipodi="http://sodipodi.sourceforge.net/DTD/sodipodi-0.dtd" xmlns:inkscape="http://www.inkscape.org/namespaces/inkscape" version="1.1" x="0px" y="0px" viewBox="0 0 100 125"><g transform="translate(0,-952.36218)"><path style="font-size:medium;font-style:normal;font-variant:normal;font-weight:normal;font-stretch:normal;text-indent:0;text-align:start;text-decoration:none;line-height:normal;letter-spacing:normal;word-spacing:normal;text-transform:none;direction:ltr;block-progression:tb;writing-mode:lr-tb;text-anchor:start;baseline-shift:baseline;opacity:1;color:#000000;fill:#000000;fill-opacity:1;stroke:none;stroke-width:4;marker:none;visibility:visible;display:inline;overflow:visible;enable-background:accumulate;font-family:Sans;-inkscape-font-specification:Sans" d="M 49.78125 13.96875 A 2.0002 2.0002 0 0 0 48 16 L 48 29.84375 L 41.25 24.4375 A 2.0002 2.0002 0 0 0 39.75 23.96875 A 2.0002 2.0002 0 0 0 38.75 27.5625 L 48.75 35.5625 A 2.0002 2.0002 0 0 0 51.25 35.5625 L 61.25 27.5625 A 2.0009763 2.0009763 0 0 0 58.75 24.4375 L 52 29.84375 L 52 16 A 2.0002 2.0002 0 0 0 49.78125 13.96875 z M 33.8125 40 A 2.0002 2.0002 0 0 0 32 42 L 32 48 L 30 48 A 2.0002 2.0002 0 0 0 29.8125 48 A 2.0002 2.0002 0 0 0 28 50 L 28 51.53125 L 21.875 55.6875 A 2.0002 2.0002 0 0 0 21 57.34375 L 21 80.75 C 21 83.5952 23.335999 86 26.1875 86 L 73.8125 86 C 76.664001 86 79 83.5952 79 80.75 L 79 57.34375 A 2.0002 2.0002 0 0 0 78.125 55.6875 L 72 51.53125 L 72 50 A 2.0002 2.0002 0 0 0 70 48 L 68 48 L 68 42 A 2.0002 2.0002 0 0 0 66 40 L 34 40 A 2.0002 2.0002 0 0 0 33.8125 40 z M 36 44 L 64 44 L 64 48 L 36 48 L 36 44 z M 32 52 L 68 52 L 68 52.53125 A 2.0002 2.0002 0 0 0 68 52.71875 L 68 56 L 32 56 L 32 52 z M 25 60 L 75 60 L 75 80.75 C 75 81.4846 74.480525 82 73.8125 82 L 26.1875 82 C 25.519475 82 25 81.4846 25 80.75 L 25 60 z M 40.78125 63.96875 A 2.0002 2.0002 0 0 0 39 66 L 39 67.375 C 39 69.3572 40.658749 71 42.625 71 L 57.375 71 C 59.341251 71 61 69.3572 61 67.375 L 61 66 A 2.0002 2.0002 0 1 0 57 66 L 57 67 L 43 67 L 43 66 A 2.0002 2.0002 0 0 0 40.78125 63.96875 z " transform="translate(0,952.36218)"/></g><text x="0" y="115" fill="#000000" font-size="5px" font-weight="bold" font-family="'Helvetica Neue', Helvetica, Arial-Unicode, Arial, Sans-serif">Created by emma mitchell</text><text x="0" y="120" fill="#000000" font-size="5px" font-weight="bold" font-family="'Helvetica Neue', Helvetica, Arial-Unicode, Arial, Sans-serif">from the Noun Project</text></svg>