<?xml version="1.0" encoding="UTF-8"?>
<svg width="40px" height="88px" viewBox="0 0 40 88" version="1.1" xmlns="http://www.w3.org/2000/svg" xmlns:xlink="http://www.w3.org/1999/xlink">
    <g fill="#777">
        <path d="M15,0 C6.724594,0 3.55271368e-15,6.724595 3.55271368e-15,15 L3.55271368e-15,68 C3.55271368e-15,79.045405 8.954595,88 20,88 C31.045405,88 40,79.045405 40,68 L40,15 C40.0101954,14.2787315 39.6312431,13.607846 39.0082501,13.2442365 C38.3852571,12.880627 37.6147429,12.880627 36.9917499,13.2442365 C36.3687569,13.607846 35.9898046,14.2787315 36,15 L36,68 C36,76.898595 28.898595,84 20,84 C11.101405,84 4,76.898595 4,68 L4,15 C4,8.871405 8.871406,4 15,4 C21.128594,4 26,8.871405 26,15 L26,64 C26,67.358595 23.358595,70 20,70 C16.641405,70 14,67.358595 14,64 L14,25 C14.0101954,24.2787315 13.6312431,23.607846 13.0082501,23.2442365 C12.3852571,22.880627 11.6147429,22.880627 10.9917499,23.2442365 C10.3687569,23.607846 9.98980457,24.2787315 10,25 L10,64 C10,69.505405 14.494595,74 20,74 C25.505405,74 30,69.505405 30,64 L30,15 C30,6.724595 23.275406,0 15,0 Z"></path>
    </g>
</svg>