<?xml version="1.0" encoding="UTF-8"?>
<svg width="88px" height="84px" viewBox="0 0 88 84" version="1.1" xmlns="http://www.w3.org/2000/svg" xmlns:xlink="http://www.w3.org/1999/xlink">
    <g id="Page-1" stroke="none" stroke-width="1" fill="none" fill-rule="evenodd">
        <g id="Group" transform="translate(1.000000, 1.637820)" stroke="#777" stroke-width="4">
            <path d="M17.522535,80.359 C17.2372413,80.3230361 16.9812324,80.1659816 16.8198691,79.9279338 C16.6585058,79.689886 16.6074057,79.3938843 16.679615,79.1155 L23.760195,50.725 L1.3594251,31.92456 C1.04275391,31.6640142 0.917202575,31.2365182 1.0426839,30.8460721 C1.16816522,30.4556259 1.51924749,30.1813627 1.9283951,30.15416 L31.114735,28.10966 L42.072775,0.98385 C42.2254674,0.60579176 42.592326,0.358283797 42.999995,0.358283797 C43.407664,0.358283797 43.7745226,0.60579176 43.927215,0.98385 L54.885265,28.10966 L84.071605,30.15416 C84.4807526,30.1813627 84.8318349,30.4556259 84.9573162,30.8460721 C85.0827975,31.2365182 84.9572462,31.6640142 84.640575,31.92456 L62.218725,50.725 L69.299315,79.1155 C69.3995561,79.5107843 69.2498173,79.9273538 68.9208743,80.1683119 C68.5919313,80.40927 68.1496639,80.4263584 67.803115,80.2115 L42.999995,64.72 L18.175805,80.2115 C17.9814704,80.3343012 17.7507693,80.3863905 17.522535,80.359 L17.522535,80.359 Z" id="Shape"></path>
        </g>
    </g>
</svg>