<svg width="62" height="61" viewBox="0 0 62 61" version="1.1" xmlns="http://www.w3.org/2000/svg" xmlns:xlink="http://www.w3.org/1999/xlink" xmlns:figma="http://www.figma.com/figma/ns">
<title>search-white</title>
<desc>Created using Figma</desc>
<g id="Canvas" transform="translate(641 1004)" figma:type="canvas">
<g id="search-white" figma:type="frame">
<g id="Group" figma:type="frame">
<g id="Vector" figma:type="vector">
<use xlink:href="#path0_stroke" transform="translate(-637.075 -1001)" fill="#FFFFFF"/>
</g>
<g id="Vector" figma:type="vector">
<use xlink:href="#path1_stroke" transform="translate(-599.5 -963.425)" fill="#FFFFFF"/>
</g>
</g>
</g>
</g>
<defs>
<path id="path0_stroke" d="M 37.275 6.375L 39.4087 4.26612L 39.4025 4.25988L 39.3963 4.25368L 37.275 6.375ZM 35.1537 35.1537C 27.8253 42.4821 15.8247 42.4821 8.49632 35.1537L 4.25368 39.3963C 13.9253 49.0679 29.7247 49.0679 39.3963 39.3963L 35.1537 35.1537ZM 8.49632 35.1537C 1.16789 27.8253 1.16789 15.8247 8.49632 8.49632L 4.25368 4.25368C -5.41789 13.9253 -5.41789 29.7247 4.25368 39.3963L 8.49632 35.1537ZM 8.49632 8.49632C 15.8247 1.16789 27.8253 1.16789 35.1537 8.49632L 39.3963 4.25368C 29.7247 -5.41789 13.9253 -5.41789 4.25368 4.25368L 8.49632 8.49632ZM 35.1413 8.48388C 42.493 15.9221 42.4753 27.8321 35.1537 35.1537L 39.3963 39.3963C 49.0747 29.7179 49.057 14.0279 39.4087 4.26612L 35.1413 8.48388Z"/>
<path id="path1_stroke" d="M 2.12132 -2.12132C 0.949747 -3.29289 -0.949747 -3.29289 -2.12132 -2.12132C -3.29289 -0.949747 -3.29289 0.949747 -2.12132 2.12132L 2.12132 -2.12132ZM 14.9787 19.2213C 16.1503 20.3929 18.0497 20.3929 19.2213 19.2213C 20.3929 18.0497 20.3929 16.1503 19.2213 14.9787L 14.9787 19.2213ZM -2.12132 2.12132L 14.9787 19.2213L 19.2213 14.9787L 2.12132 -2.12132L -2.12132 2.12132Z"/>
</defs>
</svg>
