<svg width="134" height="160" viewBox="0 0 134 160" xmlns="http://www.w3.org/2000/svg"><path d="M100.44 113.44v-10.08c0-3.413-2.08-6.507-6.24-9.28-3.413-2.347-7.947-4.213-13.6-5.6-4.907-1.28-9.44-1.92-13.6-1.92s-8.693.64-13.6 1.92c-5.653 1.387-10.187 3.253-13.6 5.6-4.16 2.773-6.24 5.867-6.24 9.28v10.08h66.88zM67 44.96c-4.053 0-7.573 1.493-10.56 4.48S51.96 55.947 51.96 60c0 4.053 1.493 7.573 4.48 10.56s6.507 4.48 10.56 4.48c4.053 0 7.573-1.493 10.56-4.48s4.48-6.507 4.48-10.56c0-4.053-1.493-7.573-4.48-10.56S71.053 44.96 67 44.96zm53.44-18.4c3.627 0 6.72 1.333 9.28 4 2.56 2.667 3.84 5.813 3.84 9.44v80c0 3.627-1.28 6.773-3.84 9.44-2.56 2.667-5.653 4-9.28 4H13.56c-3.627 0-6.72-1.333-9.28-4C1.72 126.773.44 123.627.44 120V40c0-3.627 1.28-6.773 3.84-9.44 2.56-2.667 5.653-4 9.28-4h106.88zM13.56 160v-13.44h106.88V160H13.56zM120.44 0v13.44H13.56V0h106.88z" fill="#FFF" fill-rule="evenodd"/></svg>