<svg width="127" height="120" viewBox="0 0 127 120" xmlns="http://www.w3.org/2000/svg"><path d="M86.56 69.92c2.773 0 5.147-.96 7.12-2.88 1.973-1.92 2.96-4.267 2.96-7.04 0-2.773-.987-5.147-2.96-7.12-1.973-1.973-4.347-2.96-7.12-2.96-2.773 0-5.12.987-7.04 2.96-1.92 1.973-2.88 4.347-2.88 7.12 0 2.773.96 5.12 2.88 7.04s4.267 2.88 7.04 2.88zM60 86.56V33.44h66.56v53.12H60zM120 100v6.56c0 3.627-1.333 6.773-4 9.44s-5.813 4-9.44 4H13.44c-3.733 0-6.907-1.333-9.52-4-2.613-2.667-3.92-5.813-3.92-9.44V13.44C0 9.813 1.307 6.667 3.92 4s5.787-4 9.52-4h93.12c3.627 0 6.773 1.333 9.44 4s4 5.813 4 9.44V20H60c-3.733 0-6.907 1.333-9.52 4-2.613 2.667-3.92 5.813-3.92 9.44v53.12c0 3.627 1.307 6.773 3.92 9.44s5.787 4 9.52 4h60z" fill="#FFF" fill-rule="evenodd"/></svg>